<svg width="160" height="72" viewBox="0 0 160 72" fill="none" xmlns="http://www.w3.org/2000/svg">
<path d="M40.9974 47.27C40.4774 47.27 40.0874 47.18 39.8274 47C39.5674 46.84 39.3974 46.62 39.3174 46.34C39.2374 46.06 39.1974 45.76 39.1974 45.44V28.1C39.1974 27.78 39.2274 27.49 39.2874 27.23C39.3674 26.95 39.5374 26.73 39.7974 26.57C40.0574 26.39 40.4674 26.3 41.0274 26.3L46.6674 26.33C48.1274 26.33 49.4674 26.58 50.6874 27.08C51.9274 27.58 52.9974 28.29 53.8974 29.21C54.7974 30.13 55.4874 31.23 55.9674 32.51C56.4674 33.77 56.7174 35.16 56.7174 36.68C56.7174 38.24 56.4674 39.67 55.9674 40.97C55.4674 42.27 54.7674 43.39 53.8674 44.33C52.9674 45.27 51.8974 46 50.6574 46.52C49.4374 47.02 48.0774 47.27 46.5774 47.27H40.9974ZM42.8274 43.64H46.6674C47.9474 43.64 49.0674 43.36 50.0274 42.8C50.9874 42.22 51.7274 41.42 52.2474 40.4C52.7874 39.38 53.0574 38.19 53.0574 36.83C53.0574 35.45 52.7874 34.25 52.2474 33.23C51.7274 32.19 50.9774 31.39 49.9974 30.83C49.0374 30.25 47.9174 29.96 46.6374 29.96H42.8274V43.64ZM61.478 47.3C60.938 47.3 60.538 47.21 60.278 47.03C60.018 46.87 59.858 46.66 59.798 46.4C59.738 46.12 59.708 45.81 59.708 45.47V34.31C59.708 33.99 59.738 33.7 59.798 33.44C59.878 33.16 60.038 32.94 60.278 32.78C60.538 32.62 60.948 32.54 61.508 32.54C62.068 32.54 62.468 32.62 62.708 32.78C62.968 32.94 63.128 33.16 63.188 33.44C63.248 33.72 63.278 34.03 63.278 34.37V45.5C63.278 45.84 63.248 46.15 63.188 46.43C63.128 46.69 62.968 46.9 62.708 47.06C62.468 47.22 62.058 47.3 61.478 47.3ZM61.478 29.63C60.898 29.63 60.468 29.55 60.188 29.39C59.928 29.21 59.758 28.97 59.678 28.67C59.618 28.37 59.588 28.04 59.588 27.68C59.588 27.3 59.618 26.97 59.678 26.69C59.758 26.41 59.938 26.19 60.218 26.03C60.498 25.85 60.928 25.76 61.508 25.76C62.108 25.76 62.538 25.85 62.798 26.03C63.058 26.21 63.228 26.45 63.308 26.75C63.388 27.03 63.428 27.36 63.428 27.74C63.428 28.08 63.388 28.4 63.308 28.7C63.228 29 63.058 29.23 62.798 29.39C62.538 29.55 62.098 29.63 61.478 29.63ZM68.3 47.27C67.76 47.27 67.36 47.19 67.1 47.03C66.86 46.87 66.71 46.65 66.65 46.37C66.59 46.09 66.56 45.79 66.56 45.47V34.25C66.56 33.93 66.59 33.64 66.65 33.38C66.71 33.12 66.87 32.91 67.13 32.75C67.39 32.59 67.8 32.51 68.36 32.51C68.94 32.51 69.36 32.63 69.62 32.87C69.9 33.11 70.04 33.49 70.04 34.01L69.77 34.85C69.87 34.63 70.04 34.39 70.28 34.13C70.52 33.87 70.81 33.61 71.15 33.35C71.51 33.09 71.91 32.88 72.35 32.72C72.79 32.56 73.25 32.48 73.73 32.48C74.39 32.48 74.99 32.59 75.53 32.81C76.09 33.03 76.58 33.35 77 33.77C77.44 34.19 77.82 34.7 78.14 35.3C78.48 34.78 78.86 34.31 79.28 33.89C79.7 33.45 80.19 33.11 80.75 32.87C81.31 32.61 81.94 32.48 82.64 32.48C83.8 32.48 84.77 32.77 85.55 33.35C86.35 33.93 86.95 34.76 87.35 35.84C87.77 36.9 87.98 38.17 87.98 39.65V45.47C87.98 45.81 87.94 46.12 87.86 46.4C87.8 46.66 87.64 46.87 87.38 47.03C87.14 47.19 86.74 47.27 86.18 47.27C85.62 47.27 85.21 47.18 84.95 47C84.69 46.84 84.53 46.63 84.47 46.37C84.41 46.09 84.38 45.78 84.38 45.44V39.62C84.38 38.88 84.29 38.24 84.11 37.7C83.93 37.16 83.66 36.74 83.3 36.44C82.96 36.14 82.51 35.99 81.95 35.99C81.35 35.99 80.83 36.14 80.39 36.44C79.97 36.72 79.64 37.13 79.4 37.67C79.16 38.21 79.04 38.87 79.04 39.65V45.5C79.04 45.84 78.99 46.16 78.89 46.46C78.79 46.74 78.59 46.95 78.29 47.09C78.01 47.25 77.6 47.31 77.06 47.27C76.56 47.25 76.19 47.15 75.95 46.97C75.73 46.79 75.59 46.57 75.53 46.31C75.49 46.03 75.47 45.74 75.47 45.44V39.62C75.47 38.88 75.38 38.24 75.2 37.7C75.02 37.14 74.75 36.72 74.39 36.44C74.05 36.14 73.59 35.99 73.01 35.99C72.39 35.99 71.86 36.15 71.42 36.47C71 36.79 70.68 37.22 70.46 37.76C70.24 38.3 70.13 38.92 70.13 39.62V45.5C70.13 45.82 70.09 46.12 70.01 46.4C69.95 46.68 69.79 46.89 69.53 47.03C69.29 47.19 68.88 47.27 68.3 47.27ZM98.1336 47.48C96.8336 47.48 95.6936 47.27 94.7136 46.85C93.7536 46.43 92.9436 45.86 92.2836 45.14C91.6436 44.4 91.1536 43.58 90.8136 42.68C90.4936 41.76 90.3336 40.81 90.3336 39.83C90.3336 38.39 90.6636 37.11 91.3236 35.99C91.9836 34.87 92.8936 33.99 94.0536 33.35C95.2336 32.71 96.5836 32.39 98.1036 32.39C99.1836 32.39 100.134 32.56 100.954 32.9C101.774 33.24 102.454 33.69 102.994 34.25C103.554 34.79 103.974 35.39 104.254 36.05C104.554 36.71 104.704 37.35 104.704 37.97C104.704 39.03 104.444 39.8 103.924 40.28C103.424 40.76 102.794 41 102.034 41H94.1136C94.1336 41.68 94.3436 42.27 94.7436 42.77C95.1636 43.27 95.6836 43.66 96.3036 43.94C96.9436 44.2 97.5936 44.33 98.2536 44.33C98.7536 44.33 99.1936 44.3 99.5736 44.24C99.9736 44.18 100.314 44.11 100.594 44.03C100.874 43.93 101.114 43.83 101.314 43.73C101.534 43.63 101.734 43.54 101.914 43.46C102.094 43.38 102.264 43.33 102.424 43.31C102.644 43.29 102.864 43.34 103.084 43.46C103.304 43.58 103.484 43.79 103.624 44.09C103.744 44.29 103.824 44.48 103.864 44.66C103.924 44.82 103.954 44.98 103.954 45.14C103.954 45.54 103.714 45.92 103.234 46.28C102.754 46.62 102.074 46.9 101.194 47.12C100.334 47.36 99.3136 47.48 98.1336 47.48ZM94.1136 38.87H100.264C100.604 38.87 100.864 38.82 101.044 38.72C101.224 38.6 101.314 38.36 101.314 38C101.314 37.54 101.174 37.13 100.894 36.77C100.614 36.39 100.234 36.1 99.7536 35.9C99.2736 35.68 98.7136 35.57 98.0736 35.57C97.3336 35.57 96.6636 35.72 96.0636 36.02C95.4636 36.3 94.9836 36.69 94.6236 37.19C94.2836 37.69 94.1136 38.25 94.1136 38.87ZM108.935 47.27C108.395 47.27 107.995 47.18 107.735 47C107.495 46.84 107.345 46.63 107.285 46.37C107.225 46.09 107.195 45.78 107.195 45.44V34.22C107.195 33.9 107.225 33.61 107.285 33.35C107.345 33.09 107.505 32.89 107.765 32.75C108.025 32.59 108.425 32.51 108.965 32.51C109.445 32.51 109.805 32.57 110.045 32.69C110.285 32.81 110.445 32.96 110.525 33.14C110.605 33.32 110.645 33.5 110.645 33.68C110.665 33.86 110.685 34 110.705 34.1L110.585 35.06C110.705 34.74 110.905 34.43 111.185 34.13C111.465 33.83 111.805 33.56 112.205 33.32C112.605 33.06 113.035 32.86 113.495 32.72C113.975 32.56 114.465 32.48 114.965 32.48C115.905 32.48 116.745 32.65 117.485 32.99C118.225 33.33 118.855 33.81 119.375 34.43C119.915 35.05 120.325 35.79 120.605 36.65C120.885 37.49 121.025 38.44 121.025 39.5V45.47C121.025 45.81 120.985 46.12 120.905 46.4C120.845 46.66 120.695 46.87 120.455 47.03C120.215 47.19 119.805 47.27 119.225 47.27C118.665 47.27 118.255 47.18 117.995 47C117.735 46.84 117.575 46.63 117.515 46.37C117.455 46.09 117.425 45.78 117.425 45.44V39.47C117.425 38.75 117.295 38.13 117.035 37.61C116.795 37.09 116.435 36.69 115.955 36.41C115.495 36.13 114.905 35.99 114.185 35.99C113.485 35.99 112.875 36.14 112.355 36.44C111.835 36.72 111.435 37.12 111.155 37.64C110.875 38.16 110.735 38.77 110.735 39.47V45.47C110.735 45.81 110.705 46.12 110.645 46.4C110.585 46.66 110.425 46.87 110.165 47.03C109.925 47.19 109.515 47.27 108.935 47.27Z" fill="url(#paint0_linear_344_599)"/>
<defs>
<linearGradient id="paint0_linear_344_599" x1="0" y1="36" x2="310" y2="36" gradientUnits="userSpaceOnUse">
<stop stop-color="#6020FF"/>
<stop offset="1" stop-color="#0080FF"/>
</linearGradient>
</defs>
</svg>